<?xml version="1.0" encoding="UTF-8"?>
<svg id="Calque_2" data-name="Calque 2" xmlns="http://www.w3.org/2000/svg" viewBox="0 0 373.28 373.28">
  <defs>
    <style>
      .cls-1 {
        fill: none;
        stroke: #fff;
        stroke-miterlimit: 10;
        stroke-width: 3px;
      }

      .cls-2 {
        fill: #fff;
      }
    </style>
  </defs>
  <g id="Calque_1-2" data-name="Calque 1">
    <g>
      <path class="cls-2" d="M35.26,63.94V28.54h-13.92v-6.6h35.64v6.6h-13.92v35.4h-7.8Z"/>
      <path class="cls-2" d="M81.94,64.54c-3.24,0-6.25-.54-9.03-1.62-2.78-1.08-5.19-2.6-7.23-4.56s-3.62-4.25-4.74-6.87c-1.12-2.62-1.68-5.47-1.68-8.55s.56-5.99,1.68-8.61c1.12-2.62,2.7-4.9,4.74-6.84,2.04-1.94,4.44-3.45,7.2-4.53,2.76-1.08,5.78-1.62,9.06-1.62s6.24.53,9,1.59c2.76,1.06,5.15,2.56,7.17,4.5,2.02,1.94,3.59,4.23,4.71,6.87,1.12,2.64,1.68,5.52,1.68,8.64s-.56,5.99-1.68,8.61c-1.12,2.62-2.69,4.91-4.71,6.87-2.02,1.96-4.41,3.47-7.17,4.53-2.76,1.06-5.76,1.59-9,1.59ZM81.94,57.7c2.12,0,4.07-.36,5.85-1.08,1.78-.72,3.33-1.74,4.65-3.06,1.32-1.32,2.35-2.88,3.09-4.68.74-1.8,1.11-3.78,1.11-5.94s-.36-4.14-1.08-5.94c-.72-1.8-1.75-3.36-3.09-4.68-1.34-1.32-2.9-2.34-4.68-3.06-1.78-.72-3.73-1.08-5.85-1.08s-4.09.36-5.91,1.08c-1.82.72-3.39,1.75-4.71,3.09-1.32,1.34-2.36,2.9-3.12,4.68-.76,1.78-1.14,3.75-1.14,5.91s.38,4.08,1.14,5.88c.76,1.8,1.8,3.37,3.12,4.71,1.32,1.34,2.89,2.37,4.71,3.09,1.82.72,3.79,1.08,5.91,1.08Z"/>
      <path class="cls-2" d="M130.78,64.54c-5.72,0-10.21-1.62-13.47-4.86-3.26-3.24-4.89-7.94-4.89-14.1v-23.64h7.8v23.4c0,4.32.93,7.46,2.79,9.42,1.86,1.96,4.49,2.94,7.89,2.94s6.02-.98,7.86-2.94c1.84-1.96,2.76-5.1,2.76-9.42v-23.4h7.68v23.64c0,6.16-1.63,10.86-4.89,14.1-3.26,3.24-7.77,4.86-13.53,4.86Z"/>
      <path class="cls-2" d="M167.86,63.94V28.54h-13.92v-6.6h35.64v6.6h-13.92v35.4h-7.8Z"/>
      <path class="cls-2" d="M26.74,135.94v-42h7.8v35.4h21.96v6.6h-29.76Z"/>
      <path class="cls-2" d="M62.68,135.94v-42h30.66v6.6h-22.86v28.8h23.7v6.6h-31.5ZM69.88,117.82v-6.42h20.88v6.42h-20.88Z"/>
      <path class="cls-2" d="M26.74,207.94v-42h6.42l18.36,30.66h-3.36l18.06-30.66h6.42l.12,42h-7.5v-30.42h1.5l-15.24,25.68h-3.54l-15.6-25.68h1.8v30.42h-7.44Z"/>
      <path class="cls-2" d="M103.72,208.54c-3.24,0-6.25-.54-9.03-1.62-2.78-1.08-5.19-2.6-7.23-4.56s-3.62-4.25-4.74-6.87c-1.12-2.62-1.68-5.47-1.68-8.55s.56-5.99,1.68-8.61c1.12-2.62,2.7-4.9,4.74-6.84,2.04-1.94,4.44-3.45,7.2-4.53,2.76-1.08,5.78-1.62,9.06-1.62s6.24.53,9,1.59c2.76,1.06,5.15,2.56,7.17,4.5,2.02,1.94,3.59,4.23,4.71,6.87,1.12,2.64,1.68,5.52,1.68,8.64s-.56,5.99-1.68,8.61c-1.12,2.62-2.69,4.91-4.71,6.87-2.02,1.96-4.41,3.47-7.17,4.53-2.76,1.06-5.76,1.59-9,1.59ZM103.72,201.7c2.12,0,4.07-.36,5.85-1.08,1.78-.72,3.33-1.74,4.65-3.06,1.32-1.32,2.35-2.88,3.09-4.68.74-1.8,1.11-3.78,1.11-5.94s-.36-4.14-1.08-5.94c-.72-1.8-1.75-3.36-3.09-4.68-1.34-1.32-2.9-2.34-4.68-3.06-1.78-.72-3.73-1.08-5.85-1.08s-4.09.36-5.91,1.08c-1.82.72-3.39,1.75-4.71,3.09-1.32,1.34-2.36,2.9-3.12,4.68-.76,1.78-1.14,3.75-1.14,5.91s.38,4.08,1.14,5.88c.76,1.8,1.8,3.37,3.12,4.71,1.32,1.34,2.89,2.37,4.71,3.09,1.82.72,3.79,1.08,5.91,1.08Z"/>
      <path class="cls-2" d="M134.56,207.94v-42h6.42l26.34,32.4h-3.18v-32.4h7.68v42h-6.42l-26.28-32.4h3.18v32.4h-7.74Z"/>
      <path class="cls-2" d="M183.16,207.94v-42h18.42c4.48,0,8.45.87,11.91,2.61,3.46,1.74,6.15,4.19,8.07,7.35,1.92,3.16,2.88,6.84,2.88,11.04s-.96,7.88-2.88,11.04c-1.92,3.16-4.61,5.61-8.07,7.35-3.46,1.74-7.43,2.61-11.91,2.61h-18.42ZM190.96,201.34h10.14c3.16,0,5.89-.6,8.19-1.8,2.3-1.2,4.1-2.88,5.4-5.04,1.3-2.16,1.95-4.68,1.95-7.56s-.65-5.5-1.95-7.62c-1.3-2.12-3.1-3.78-5.4-4.98-2.3-1.2-5.03-1.8-8.19-1.8h-10.14v28.8Z"/>
      <path class="cls-2" d="M232.72,207.94v-42h30.66v6.6h-22.86v28.8h23.7v6.6h-31.5ZM239.92,189.82v-6.42h20.88v6.42h-20.88Z"/>
      <path class="cls-2" d="M26.74,279.94v-42h18.42c4.48,0,8.45.87,11.91,2.61,3.46,1.74,6.15,4.19,8.07,7.35,1.92,3.16,2.88,6.84,2.88,11.04s-.96,7.88-2.88,11.04c-1.92,3.16-4.61,5.61-8.07,7.35-3.46,1.74-7.43,2.61-11.91,2.61h-18.42ZM34.54,273.34h10.14c3.16,0,5.89-.6,8.19-1.8,2.3-1.2,4.1-2.88,5.4-5.04,1.3-2.16,1.95-4.68,1.95-7.56s-.65-5.5-1.95-7.62c-1.3-2.12-3.1-3.78-5.4-4.98-2.3-1.2-5.03-1.8-8.19-1.8h-10.14v28.8Z"/>
      <path class="cls-2" d="M76.3,279.94v-42h30.66v6.6h-22.86v28.8h23.7v6.6h-31.5ZM83.5,261.82v-6.42h20.88v6.42h-20.88ZM86.62,234.52l8.1-8.22h8.88l-10.5,8.22h-6.48Z"/>
      <path class="cls-2" d="M125.02,279.94v-35.4h-13.92v-6.6h35.64v6.6h-13.92v35.4h-7.8Z"/>
      <path class="cls-2" d="M152.62,279.94v-42h30.66v6.6h-22.86v28.8h23.7v6.6h-31.5ZM159.82,261.82v-6.42h20.88v6.42h-20.88Z"/>
      <path class="cls-2" d="M205.84,280.54c-3.28,0-6.41-.47-9.39-1.41s-5.37-2.15-7.17-3.63l2.7-6.06c1.68,1.32,3.76,2.42,6.24,3.3,2.48.88,5.02,1.32,7.62,1.32,2.2,0,3.98-.24,5.34-.72,1.36-.48,2.36-1.13,3-1.95.64-.82.96-1.75.96-2.79,0-1.28-.46-2.31-1.38-3.09-.92-.78-2.11-1.4-3.57-1.86s-3.08-.88-4.86-1.26c-1.78-.38-3.56-.85-5.34-1.41-1.78-.56-3.41-1.27-4.89-2.13-1.48-.86-2.67-2.01-3.57-3.45-.9-1.44-1.35-3.28-1.35-5.52s.61-4.37,1.83-6.27c1.22-1.9,3.08-3.42,5.58-4.56,2.5-1.14,5.67-1.71,9.51-1.71,2.52,0,5.02.32,7.5.96,2.48.64,4.64,1.56,6.48,2.76l-2.46,6.06c-1.88-1.12-3.82-1.95-5.82-2.49-2-.54-3.92-.81-5.76-.81-2.12,0-3.86.26-5.22.78-1.36.52-2.35,1.21-2.97,2.07-.62.86-.93,1.81-.93,2.85,0,1.28.45,2.31,1.35,3.09.9.78,2.08,1.39,3.54,1.83,1.46.44,3.09.86,4.89,1.26,1.8.4,3.58.87,5.34,1.41,1.76.54,3.38,1.24,4.86,2.1,1.48.86,2.67,2,3.57,3.42.9,1.42,1.35,3.23,1.35,5.43s-.61,4.31-1.83,6.21c-1.22,1.9-3.09,3.42-5.61,4.56-2.52,1.14-5.7,1.71-9.54,1.71Z"/>
      <path class="cls-2" d="M238.48,279.94v-35.4h-13.92v-6.6h35.64v6.6h-13.92v35.4h-7.8Z"/>
      <path class="cls-2" d="M266.08,279.94v-42h30.66v6.6h-22.86v28.8h23.7v6.6h-31.5ZM273.28,261.82v-6.42h20.88v6.42h-20.88Z"/>
      <path class="cls-2" d="M28.48,352.36c-1.4,0-2.58-.47-3.54-1.41-.96-.94-1.44-2.15-1.44-3.63s.48-2.67,1.44-3.57c.96-.9,2.14-1.35,3.54-1.35,1.32,0,2.46.45,3.42,1.35.96.9,1.44,2.09,1.44,3.57s-.48,2.69-1.44,3.63c-.96.94-2.1,1.41-3.42,1.41Z"/>
    </g>
    <rect class="cls-1" x="1.5" y="1.5" width="370.28" height="370.28"/>
  </g>
</svg>