<?xml version="1.0" encoding="UTF-8"?>
<svg id="Calque_2" data-name="Calque 2" xmlns="http://www.w3.org/2000/svg" viewBox="0 0 221.06 73.35">
  <defs>
    <style>
      .cls-1 {
        fill: none;
        stroke: #fff;
        stroke-miterlimit: 10;
        stroke-width: 3px;
      }

      .cls-2 {
        fill: #fff;
      }
    </style>
  </defs>
  <g id="Calque_1-2" data-name="Calque 1">
    <g>
      <path class="cls-2" d="M29.59,57.67V22.27h-13.92v-6.6h35.64v6.6h-13.92v35.4h-7.8Z"/>
      <path class="cls-2" d="M57.19,57.67V15.67h7.8v35.4h21.96v6.6h-29.76Z"/>
      <path class="cls-2" d="M93.13,57.67V15.67h6.42l18.36,30.66h-3.36l18.06-30.66h6.42l.12,42h-7.5v-30.42h1.5l-15.24,25.68h-3.54l-15.6-25.68h1.8v30.42h-7.44Z"/>
      <path class="cls-2" d="M150.43,57.67V15.67h18.42c4.48,0,8.45.87,11.91,2.61,3.46,1.74,6.15,4.19,8.07,7.35,1.92,3.16,2.88,6.84,2.88,11.04s-.96,7.88-2.88,11.04c-1.92,3.16-4.61,5.61-8.07,7.35-3.46,1.74-7.43,2.61-11.91,2.61h-18.42ZM158.23,51.07h10.14c3.16,0,5.89-.6,8.19-1.8,2.3-1.2,4.1-2.88,5.4-5.04,1.3-2.16,1.95-4.68,1.95-7.56s-.65-5.5-1.95-7.62c-1.3-2.12-3.1-3.78-5.4-4.98-2.3-1.2-5.03-1.8-8.19-1.8h-10.14v28.8Z"/>
      <path class="cls-2" d="M200.53,58.09c-1.4,0-2.58-.47-3.54-1.41-.96-.94-1.44-2.15-1.44-3.63s.48-2.67,1.44-3.57c.96-.9,2.14-1.35,3.54-1.35,1.32,0,2.46.45,3.42,1.35.96.9,1.44,2.09,1.44,3.57s-.48,2.69-1.44,3.63c-.96.94-2.1,1.41-3.42,1.41Z"/>
    </g>
    <rect class="cls-1" x="1.5" y="1.5" width="218.06" height="70.35"/>
  </g>
</svg>